<svg width="69" height="68" viewBox="0 0 69 68" fill="none" xmlns="http://www.w3.org/2000/svg">
<path d="M0.5 34C0.5 15.2223 15.7223 0 34.5 0C53.2777 0 68.5 15.2223 68.5 34C68.5 52.7777 53.2777 68 34.5 68C15.7223 68 0.5 52.7777 0.5 34Z" fill="#6E9CFF"/>
<path d="M16.5 52H52.5M28.5 26H30.5M28.5 34H30.5M28.5 42H30.5M38.5 26H40.5M38.5 34H40.5M38.5 42H40.5M20.5 52V20C20.5 18.9391 20.9214 17.9217 21.6716 17.1716C22.4217 16.4214 23.4391 16 24.5 16H44.5C45.5609 16 46.5783 16.4214 47.3284 17.1716C48.0786 17.9217 48.5 18.9391 48.5 20V52" stroke="white" stroke-width="4" stroke-linecap="round" stroke-linejoin="round"/>
</svg>
