<svg width="68" height="68" viewBox="0 0 68 68" fill="none" xmlns="http://www.w3.org/2000/svg">
<path d="M0 34C0 15.2223 15.2223 0 34 0C52.7777 0 68 15.2223 68 34C68 52.7777 52.7777 68 34 68C15.2223 68 0 52.7777 0 34Z" fill="#6E9CFF"/>
<path d="M48 18H44V16C44 15.4696 43.7893 14.9609 43.4142 14.5858C43.0391 14.2107 42.5304 14 42 14C41.4696 14 40.9609 14.2107 40.5858 14.5858C40.2107 14.9609 40 15.4696 40 16V18H28V16C28 15.4696 27.7893 14.9609 27.4142 14.5858C27.0391 14.2107 26.5304 14 26 14C25.4696 14 24.9609 14.2107 24.5858 14.5858C24.2107 14.9609 24 15.4696 24 16V18H20C18.4087 18 16.8826 18.6321 15.7574 19.7574C14.6321 20.8826 14 22.4087 14 24V48C14 49.5913 14.6321 51.1174 15.7574 52.2426C16.8826 53.3679 18.4087 54 20 54H48C49.5913 54 51.1174 53.3679 52.2426 52.2426C53.3679 51.1174 54 49.5913 54 48V24C54 22.4087 53.3679 20.8826 52.2426 19.7574C51.1174 18.6321 49.5913 18 48 18ZM50 48C50 48.5304 49.7893 49.0391 49.4142 49.4142C49.0391 49.7893 48.5304 50 48 50H20C19.4696 50 18.9609 49.7893 18.5858 49.4142C18.2107 49.0391 18 48.5304 18 48V34H50V48ZM50 30H18V24C18 23.4696 18.2107 22.9609 18.5858 22.5858C18.9609 22.2107 19.4696 22 20 22H24V24C24 24.5304 24.2107 25.0391 24.5858 25.4142C24.9609 25.7893 25.4696 26 26 26C26.5304 26 27.0391 25.7893 27.4142 25.4142C27.7893 25.0391 28 24.5304 28 24V22H40V24C40 24.5304 40.2107 25.0391 40.5858 25.4142C40.9609 25.7893 41.4696 26 42 26C42.5304 26 43.0391 25.7893 43.4142 25.4142C43.7893 25.0391 44 24.5304 44 24V22H48C48.5304 22 49.0391 22.2107 49.4142 22.5858C49.7893 22.9609 50 23.4696 50 24V30Z" fill="white"/>
</svg>
