<svg width="69" height="68" viewBox="0 0 69 68" fill="none" xmlns="http://www.w3.org/2000/svg">
<path d="M0.5 34C0.5 15.2223 15.7223 0 34.5 0C53.2777 0 68.5 15.2223 68.5 34C68.5 52.7777 53.2777 68 34.5 68C15.7223 68 0.5 52.7777 0.5 34Z" fill="#6E9CFF"/>
<path d="M54.5 32.16V34C54.4975 38.3128 53.101 42.5093 50.5187 45.9636C47.9363 49.4179 44.3066 51.9449 40.1707 53.1678C36.0349 54.3906 31.6145 54.2438 27.5689 52.7491C23.5234 51.2545 20.0693 48.4922 17.7219 44.8741C15.3745 41.256 14.2596 36.9761 14.5434 32.6726C14.8271 28.3691 16.4944 24.2726 19.2966 20.9941C22.0987 17.7156 25.8856 15.4307 30.0924 14.4803C34.2992 13.5298 38.7005 13.9646 42.64 15.72M54.5 18L34.5 38.02L28.5 32.02" stroke="white" stroke-width="4" stroke-linecap="round" stroke-linejoin="round"/>
</svg>
